<mxfile host="app.diagrams.net" agent="Mozilla/5.0 (Windows NT 10.0; Win64; x64) AppleWebKit/537.36 (KHTML, like Gecko) Chrome/135.0.0.0 Safari/537.36" version="26.2.14">
  <diagram name="Page-1" id="wVAa80BZECDAgoq7O1Sb">
    <mxGraphModel dx="1042" dy="562" grid="1" gridSize="10" guides="1" tooltips="1" connect="1" arrows="1" fold="1" page="1" pageScale="1" pageWidth="827" pageHeight="1169" math="0" shadow="0">
      <root>
        <mxCell id="0" />
        <mxCell id="1" parent="0" />
        <mxCell id="1mytR21HzWVWrXT36joE-1" value="" style="shape=image;verticalLabelPosition=bottom;labelBackgroundColor=default;verticalAlign=top;aspect=fixed;imageAspect=0;image=https://images.mapsofworld.com/united-kingdom/uk-counties-map.jpg;" vertex="1" parent="1">
          <mxGeometry x="10" y="20" width="258" height="485.27" as="geometry" />
        </mxCell>
        <mxCell id="1mytR21HzWVWrXT36joE-2" value="Gender" style="text;html=1;align=center;verticalAlign=middle;whiteSpace=wrap;rounded=0;" vertex="1" parent="1">
          <mxGeometry x="300" y="110" width="60" height="30" as="geometry" />
        </mxCell>
        <mxCell id="1mytR21HzWVWrXT36joE-3" value="" style="rounded=0;whiteSpace=wrap;html=1;rotation=90;fillColor=#1ba1e2;fontColor=#ffffff;strokeColor=#006EAF;" vertex="1" parent="1">
          <mxGeometry x="277.5" y="172.5" width="105" height="60" as="geometry" />
        </mxCell>
        <mxCell id="1mytR21HzWVWrXT36joE-4" value="Male" style="text;html=1;align=center;verticalAlign=middle;whiteSpace=wrap;rounded=0;" vertex="1" parent="1">
          <mxGeometry x="364" y="150" width="60" height="30" as="geometry" />
        </mxCell>
        <mxCell id="1mytR21HzWVWrXT36joE-5" value="Female" style="text;html=1;align=center;verticalAlign=middle;whiteSpace=wrap;rounded=0;" vertex="1" parent="1">
          <mxGeometry x="364" y="410" width="60" height="30" as="geometry" />
        </mxCell>
        <mxCell id="1mytR21HzWVWrXT36joE-6" value="" style="rounded=0;whiteSpace=wrap;html=1;rotation=90;fillColor=light-dark(#1BA1E2,#FFFFFF);fontColor=#ffffff;strokeColor=#006EAF;" vertex="1" parent="1">
          <mxGeometry x="277.5" y="280" width="105" height="60" as="geometry" />
        </mxCell>
        <mxCell id="1mytR21HzWVWrXT36joE-7" value="" style="rounded=0;whiteSpace=wrap;html=1;rotation=90;fillColor=light-dark(#1BA1E2,#C41CB3);fontColor=#ffffff;strokeColor=#006EAF;" vertex="1" parent="1">
          <mxGeometry x="277.5" y="380" width="105" height="60" as="geometry" />
        </mxCell>
        <mxCell id="1mytR21HzWVWrXT36joE-8" value="" style="ellipse;whiteSpace=wrap;html=1;aspect=fixed;fillColor=#1ba1e2;fontColor=#ffffff;strokeColor=#006EAF;" vertex="1" parent="1">
          <mxGeometry x="124" y="410" width="30" height="30" as="geometry" />
        </mxCell>
        <mxCell id="1mytR21HzWVWrXT36joE-9" value="" style="ellipse;whiteSpace=wrap;html=1;aspect=fixed;fillColor=#1ba1e2;fontColor=#ffffff;strokeColor=#006EAF;" vertex="1" parent="1">
          <mxGeometry x="170" y="310" width="30" height="30" as="geometry" />
        </mxCell>
        <mxCell id="1mytR21HzWVWrXT36joE-10" value="" style="ellipse;whiteSpace=wrap;html=1;aspect=fixed;fillColor=#1ba1e2;fontColor=#ffffff;strokeColor=#006EAF;" vertex="1" parent="1">
          <mxGeometry x="200" y="395" width="30" height="30" as="geometry" />
        </mxCell>
        <mxCell id="1mytR21HzWVWrXT36joE-11" value="" style="ellipse;whiteSpace=wrap;html=1;aspect=fixed;fillColor=#1ba1e2;fontColor=#ffffff;strokeColor=#006EAF;" vertex="1" parent="1">
          <mxGeometry x="140" y="365" width="30" height="30" as="geometry" />
        </mxCell>
        <mxCell id="1mytR21HzWVWrXT36joE-12" value="" style="ellipse;whiteSpace=wrap;html=1;aspect=fixed;fillColor=#1ba1e2;fontColor=#ffffff;strokeColor=#006EAF;" vertex="1" parent="1">
          <mxGeometry x="180" y="365" width="30" height="30" as="geometry" />
        </mxCell>
        <mxCell id="1mytR21HzWVWrXT36joE-13" value="" style="ellipse;whiteSpace=wrap;html=1;aspect=fixed;fillColor=light-dark(#1BA1E2,#FFFFFF);fontColor=#ffffff;strokeColor=#006EAF;" vertex="1" parent="1">
          <mxGeometry x="160" y="430" width="30" height="30" as="geometry" />
        </mxCell>
        <mxCell id="1mytR21HzWVWrXT36joE-15" value="" style="ellipse;whiteSpace=wrap;html=1;aspect=fixed;fillColor=light-dark(#1BA1E2,#FFFFFF);fontColor=#ffffff;strokeColor=#006EAF;" vertex="1" parent="1">
          <mxGeometry x="154" y="260" width="30" height="30" as="geometry" />
        </mxCell>
        <mxCell id="1mytR21HzWVWrXT36joE-16" value="" style="ellipse;whiteSpace=wrap;html=1;aspect=fixed;fillColor=light-dark(#1BA1E2,#FFFFFF);fontColor=#ffffff;strokeColor=#006EAF;" vertex="1" parent="1">
          <mxGeometry x="120" y="230" width="30" height="30" as="geometry" />
        </mxCell>
        <mxCell id="1mytR21HzWVWrXT36joE-17" value="" style="ellipse;whiteSpace=wrap;html=1;aspect=fixed;fillColor=light-dark(#1BA1E2,#FFFFFF);fontColor=#ffffff;strokeColor=#006EAF;" vertex="1" parent="1">
          <mxGeometry x="190" y="450" width="30" height="30" as="geometry" />
        </mxCell>
        <mxCell id="1mytR21HzWVWrXT36joE-18" value="" style="ellipse;whiteSpace=wrap;html=1;aspect=fixed;fillColor=light-dark(#1BA1E2,#C41CB3);fontColor=#ffffff;strokeColor=#006EAF;" vertex="1" parent="1">
          <mxGeometry x="80" y="450" width="30" height="30" as="geometry" />
        </mxCell>
        <mxCell id="1mytR21HzWVWrXT36joE-19" value="" style="ellipse;whiteSpace=wrap;html=1;aspect=fixed;fillColor=light-dark(#1BA1E2,#C41CB3);fontColor=#ffffff;strokeColor=#006EAF;" vertex="1" parent="1">
          <mxGeometry x="100" y="365" width="30" height="30" as="geometry" />
        </mxCell>
        <mxCell id="1mytR21HzWVWrXT36joE-20" value="" style="ellipse;whiteSpace=wrap;html=1;aspect=fixed;fillColor=light-dark(#1BA1E2,#C41CB3);fontColor=#ffffff;strokeColor=#006EAF;" vertex="1" parent="1">
          <mxGeometry x="140" y="290" width="30" height="30" as="geometry" />
        </mxCell>
        <mxCell id="1mytR21HzWVWrXT36joE-21" value="" style="ellipse;whiteSpace=wrap;html=1;aspect=fixed;fillColor=light-dark(#1BA1E2,#C41CB3);fontColor=#ffffff;strokeColor=#006EAF;" vertex="1" parent="1">
          <mxGeometry x="140" y="330" width="30" height="30" as="geometry" />
        </mxCell>
        <mxCell id="1mytR21HzWVWrXT36joE-22" value="" style="ellipse;whiteSpace=wrap;html=1;aspect=fixed;fillColor=light-dark(#1BA1E2,#C41CB3);fontColor=#ffffff;strokeColor=#006EAF;" vertex="1" parent="1">
          <mxGeometry x="154" y="172.5" width="30" height="30" as="geometry" />
        </mxCell>
        <mxCell id="1mytR21HzWVWrXT36joE-23" value="" style="shape=image;verticalLabelPosition=bottom;labelBackgroundColor=default;verticalAlign=top;aspect=fixed;imageAspect=0;image=https://images.mapsofworld.com/united-kingdom/uk-counties-map.jpg;" vertex="1" parent="1">
          <mxGeometry x="470" y="60" width="215.47" height="405.27" as="geometry" />
        </mxCell>
        <mxCell id="1mytR21HzWVWrXT36joE-24" value="Gender?" style="text;html=1;align=center;verticalAlign=middle;whiteSpace=wrap;rounded=0;" vertex="1" parent="1">
          <mxGeometry x="720" y="20" width="60" height="30" as="geometry" />
        </mxCell>
        <mxCell id="1mytR21HzWVWrXT36joE-25" value="Input:" style="text;html=1;align=center;verticalAlign=middle;whiteSpace=wrap;rounded=0;" vertex="1" parent="1">
          <mxGeometry x="720" y="50" width="60" height="30" as="geometry" />
        </mxCell>
        <mxCell id="1mytR21HzWVWrXT36joE-26" value="Age?" style="text;html=1;align=center;verticalAlign=middle;whiteSpace=wrap;rounded=0;" vertex="1" parent="1">
          <mxGeometry x="720" y="80" width="60" height="30" as="geometry" />
        </mxCell>
        <mxCell id="1mytR21HzWVWrXT36joE-27" value="Input:" style="text;html=1;align=center;verticalAlign=middle;whiteSpace=wrap;rounded=0;" vertex="1" parent="1">
          <mxGeometry x="720" y="110" width="60" height="30" as="geometry" />
        </mxCell>
        <mxCell id="1mytR21HzWVWrXT36joE-28" value="" style="rounded=0;whiteSpace=wrap;html=1;rotation=90;fillColor=light-dark(#1BA1E2,#FF0000);fontColor=#ffffff;strokeColor=#006EAF;" vertex="1" parent="1">
          <mxGeometry x="660" y="200" width="142.5" height="60" as="geometry" />
        </mxCell>
        <mxCell id="1mytR21HzWVWrXT36joE-30" value="" style="rounded=0;whiteSpace=wrap;html=1;rotation=90;fillColor=#008a00;fontColor=#ffffff;strokeColor=#005700;" vertex="1" parent="1">
          <mxGeometry x="645" y="350" width="172.5" height="60" as="geometry" />
        </mxCell>
        <mxCell id="1mytR21HzWVWrXT36joE-31" value="Even" style="text;html=1;align=center;verticalAlign=middle;whiteSpace=wrap;rounded=0;" vertex="1" parent="1">
          <mxGeometry x="370" y="295" width="60" height="30" as="geometry" />
        </mxCell>
        <mxCell id="1mytR21HzWVWrXT36joE-32" value="High Risk" style="text;html=1;align=center;verticalAlign=middle;whiteSpace=wrap;rounded=0;" vertex="1" parent="1">
          <mxGeometry x="767" y="210" width="60" height="30" as="geometry" />
        </mxCell>
        <mxCell id="1mytR21HzWVWrXT36joE-33" value="Low Risk" style="text;html=1;align=center;verticalAlign=middle;whiteSpace=wrap;rounded=0;" vertex="1" parent="1">
          <mxGeometry x="767" y="365" width="60" height="30" as="geometry" />
        </mxCell>
        <mxCell id="1mytR21HzWVWrXT36joE-34" value="" style="ellipse;whiteSpace=wrap;html=1;aspect=fixed;fillColor=light-dark(#1BA1E2,#FF0000);fontColor=#ffffff;strokeColor=#006EAF;" vertex="1" parent="1">
          <mxGeometry x="610" y="370" width="30" height="30" as="geometry" />
        </mxCell>
        <mxCell id="1mytR21HzWVWrXT36joE-35" value="" style="ellipse;whiteSpace=wrap;html=1;aspect=fixed;fillColor=light-dark(#1BA1E2,#FF0000);fontColor=#ffffff;strokeColor=#006EAF;" vertex="1" parent="1">
          <mxGeometry x="570" y="350" width="30" height="30" as="geometry" />
        </mxCell>
        <mxCell id="1mytR21HzWVWrXT36joE-36" value="" style="ellipse;whiteSpace=wrap;html=1;aspect=fixed;fillColor=light-dark(#1BA1E2,#FF0000);fontColor=#ffffff;strokeColor=#006EAF;" vertex="1" parent="1">
          <mxGeometry x="600" y="325" width="30" height="30" as="geometry" />
        </mxCell>
        <mxCell id="1mytR21HzWVWrXT36joE-37" value="" style="ellipse;whiteSpace=wrap;html=1;aspect=fixed;fillColor=light-dark(#1BA1E2,#FF0000);fontColor=#ffffff;strokeColor=#006EAF;" vertex="1" parent="1">
          <mxGeometry x="570" y="395" width="30" height="30" as="geometry" />
        </mxCell>
        <mxCell id="1mytR21HzWVWrXT36joE-38" value="" style="ellipse;whiteSpace=wrap;html=1;aspect=fixed;fillColor=#60a917;fontColor=#ffffff;strokeColor=#2D7600;" vertex="1" parent="1">
          <mxGeometry x="610" y="410" width="30" height="30" as="geometry" />
        </mxCell>
        <mxCell id="1mytR21HzWVWrXT36joE-39" value="" style="ellipse;whiteSpace=wrap;html=1;aspect=fixed;fillColor=#60a917;fontColor=#ffffff;strokeColor=#2D7600;" vertex="1" parent="1">
          <mxGeometry x="580" y="280" width="30" height="30" as="geometry" />
        </mxCell>
        <mxCell id="1mytR21HzWVWrXT36joE-40" value="" style="ellipse;whiteSpace=wrap;html=1;aspect=fixed;fillColor=#60a917;fontColor=#ffffff;strokeColor=#2D7600;" vertex="1" parent="1">
          <mxGeometry x="520" y="425" width="30" height="30" as="geometry" />
        </mxCell>
        <mxCell id="1mytR21HzWVWrXT36joE-41" value="" style="ellipse;whiteSpace=wrap;html=1;aspect=fixed;fillColor=#60a917;fontColor=#ffffff;strokeColor=#2D7600;" vertex="1" parent="1">
          <mxGeometry x="650" y="365" width="30" height="30" as="geometry" />
        </mxCell>
        <mxCell id="1mytR21HzWVWrXT36joE-42" value="" style="ellipse;whiteSpace=wrap;html=1;aspect=fixed;fillColor=#60a917;fontColor=#ffffff;strokeColor=#2D7600;" vertex="1" parent="1">
          <mxGeometry x="580" y="200" width="30" height="30" as="geometry" />
        </mxCell>
        <mxCell id="1mytR21HzWVWrXT36joE-43" value="" style="ellipse;whiteSpace=wrap;html=1;aspect=fixed;fillColor=#60a917;fontColor=#ffffff;strokeColor=#2D7600;" vertex="1" parent="1">
          <mxGeometry x="490" y="260" width="30" height="30" as="geometry" />
        </mxCell>
      </root>
    </mxGraphModel>
  </diagram>
</mxfile>
